# xmcd
#
# Track frame offsets:
# 150
# 13032
# 25930
# 36947
# 48374
# 59475
# 66991
# 79726
# 89675
# 100145
# 111264
#
# Disc length: 1636 seconds
#
#
# Revision: 0
# Processed by: cddbd v1.5.2PL0 Copyright (c) Steve Scherf et al.
# Submitted via: FreeRIP 2.945 
#
DISCID=9306620b
DTITLE=Bill Anderson - I Love You Drops
DYEAR=1900
DGENRE=Country
TTITLE0=I Love You Drops
TTITLE1=Think I'll Go Somewhere And Cry
TTITLE2=Talking To The Wall
TTITLE3=When Liking Turns To Loving
TTITLE4=I Get The Fever
TTITLE5=In The Summertime
TTITLE6=Next Time You're In Tulsa
TTITLE7=Lovin' Pains
TTITLE8=I'm So Lonesome I Could Cry
TTITLE9=Nail My Shoes To The Floor
TTITLE10=Certain
EXTD=
EXTT0=
EXTT1=
EXTT2=
EXTT3=
EXTT4=
EXTT5=
EXTT6=
EXTT7=
EXTT8=
EXTT9=
EXTT10=
PLAYORDER=
